%TF.GenerationSoftware,KiCad,Pcbnew,(6.0.6)*%
%TF.CreationDate,2022-11-09T12:37:34+01:00*%
%TF.ProjectId,i2c esd protection,69326320-6573-4642-9070-726f74656374,rev?*%
%TF.SameCoordinates,Original*%
%TF.FileFunction,Legend,Top*%
%TF.FilePolarity,Positive*%
%FSLAX46Y46*%
G04 Gerber Fmt 4.6, Leading zero omitted, Abs format (unit mm)*
G04 Created by KiCad (PCBNEW (6.0.6)) date 2022-11-09 12:37:34*
%MOMM*%
%LPD*%
G01*
G04 APERTURE LIST*
%ADD10C,0.150000*%
%ADD11C,0.254000*%
%ADD12C,0.120000*%
%ADD13C,0.127000*%
%ADD14C,0.300000*%
%ADD15C,0.200000*%
G04 APERTURE END LIST*
D10*
%TO.C,R2*%
X155789333Y-90748380D02*
X155456000Y-90272190D01*
X155217904Y-90748380D02*
X155217904Y-89748380D01*
X155598857Y-89748380D01*
X155694095Y-89796000D01*
X155741714Y-89843619D01*
X155789333Y-89938857D01*
X155789333Y-90081714D01*
X155741714Y-90176952D01*
X155694095Y-90224571D01*
X155598857Y-90272190D01*
X155217904Y-90272190D01*
X156170285Y-89843619D02*
X156217904Y-89796000D01*
X156313142Y-89748380D01*
X156551238Y-89748380D01*
X156646476Y-89796000D01*
X156694095Y-89843619D01*
X156741714Y-89938857D01*
X156741714Y-90034095D01*
X156694095Y-90176952D01*
X156122666Y-90748380D01*
X156741714Y-90748380D01*
%TO.C,R1*%
X160107333Y-77034380D02*
X159774000Y-76558190D01*
X159535904Y-77034380D02*
X159535904Y-76034380D01*
X159916857Y-76034380D01*
X160012095Y-76082000D01*
X160059714Y-76129619D01*
X160107333Y-76224857D01*
X160107333Y-76367714D01*
X160059714Y-76462952D01*
X160012095Y-76510571D01*
X159916857Y-76558190D01*
X159535904Y-76558190D01*
X161059714Y-77034380D02*
X160488285Y-77034380D01*
X160774000Y-77034380D02*
X160774000Y-76034380D01*
X160678761Y-76177238D01*
X160583523Y-76272476D01*
X160488285Y-76320095D01*
%TO.C,J2*%
X145999423Y-83608629D02*
X146714547Y-83608629D01*
X146857571Y-83656304D01*
X146952921Y-83751654D01*
X147000596Y-83894678D01*
X147000596Y-83990028D01*
X146094773Y-83179555D02*
X146047098Y-83131880D01*
X145999423Y-83036530D01*
X145999423Y-82798155D01*
X146047098Y-82702806D01*
X146094773Y-82655131D01*
X146190123Y-82607456D01*
X146285473Y-82607456D01*
X146428497Y-82655131D01*
X147000596Y-83227230D01*
X147000596Y-82607456D01*
%TO.C,J1*%
X164340053Y-84698819D02*
X165055177Y-84698819D01*
X165198201Y-84746494D01*
X165293551Y-84841844D01*
X165341226Y-84984868D01*
X165341226Y-85080218D01*
X165341226Y-83697646D02*
X165341226Y-84269745D01*
X165341226Y-83983695D02*
X164340053Y-83983695D01*
X164483078Y-84079045D01*
X164578428Y-84174395D01*
X164626103Y-84269745D01*
D11*
%TO.C,D1*%
X155018619Y-84394523D02*
X155018619Y-83124523D01*
X155321000Y-83124523D01*
X155502428Y-83185000D01*
X155623380Y-83305952D01*
X155683857Y-83426904D01*
X155744333Y-83668809D01*
X155744333Y-83850238D01*
X155683857Y-84092142D01*
X155623380Y-84213095D01*
X155502428Y-84334047D01*
X155321000Y-84394523D01*
X155018619Y-84394523D01*
X156953857Y-84394523D02*
X156228142Y-84394523D01*
X156591000Y-84394523D02*
X156591000Y-83124523D01*
X156470047Y-83305952D01*
X156349095Y-83426904D01*
X156228142Y-83487380D01*
D10*
%TO.C,C1*%
X151217333Y-80269142D02*
X151169714Y-80316761D01*
X151026857Y-80364380D01*
X150931619Y-80364380D01*
X150788761Y-80316761D01*
X150693523Y-80221523D01*
X150645904Y-80126285D01*
X150598285Y-79935809D01*
X150598285Y-79792952D01*
X150645904Y-79602476D01*
X150693523Y-79507238D01*
X150788761Y-79412000D01*
X150931619Y-79364380D01*
X151026857Y-79364380D01*
X151169714Y-79412000D01*
X151217333Y-79459619D01*
X152169714Y-80364380D02*
X151598285Y-80364380D01*
X151884000Y-80364380D02*
X151884000Y-79364380D01*
X151788761Y-79507238D01*
X151693523Y-79602476D01*
X151598285Y-79650095D01*
D12*
%TO.C,R2*%
X156183064Y-89381000D02*
X155728936Y-89381000D01*
X156183064Y-87911000D02*
X155728936Y-87911000D01*
%TO.C,R1*%
X160046936Y-77497000D02*
X160501064Y-77497000D01*
X160046936Y-78967000D02*
X160501064Y-78967000D01*
D13*
%TO.C,J2*%
X140205000Y-82020000D02*
X140205000Y-85620000D01*
X144455000Y-86820000D02*
X142180000Y-86820000D01*
X144455000Y-86020000D02*
X144455000Y-86820000D01*
X144455000Y-80820000D02*
X142180000Y-80820000D01*
X144455000Y-81620000D02*
X144455000Y-80820000D01*
D14*
X145265000Y-81370000D02*
G75*
G03*
X145265000Y-81370000I-100000J0D01*
G01*
D13*
%TO.C,J1*%
X171231000Y-85620000D02*
X171231000Y-82020000D01*
X166981000Y-80820000D02*
X169256000Y-80820000D01*
X166981000Y-81620000D02*
X166981000Y-80820000D01*
X166981000Y-86820000D02*
X169256000Y-86820000D01*
X166981000Y-86020000D02*
X166981000Y-86820000D01*
D14*
X166371000Y-86270000D02*
G75*
G03*
X166371000Y-86270000I-100000J0D01*
G01*
D15*
%TO.C,D1*%
X154081000Y-82220000D02*
X155231000Y-82220000D01*
X155581000Y-85320000D02*
X155581000Y-82320000D01*
X156331000Y-85320000D02*
X155581000Y-85320000D01*
X156331000Y-82320000D02*
X156331000Y-85320000D01*
X155581000Y-82320000D02*
X156331000Y-82320000D01*
D12*
%TO.C,C1*%
X151645252Y-77497000D02*
X151122748Y-77497000D01*
X151645252Y-78967000D02*
X151122748Y-78967000D01*
%TD*%
M02*
